<svg xmlns="http://www.w3.org/2000/svg" width="700pt" height="700pt" viewBox="0 0 700 700"><style>@media(prefers-color-scheme:light){:root{filter:none}}@media(prefers-color-scheme:dark){:root{filter:invert(100%)}}</style><g transform="translate(0.000000,700.000000) scale(0.100000,-0.100000)" fill="#000" stroke="none"><path d="M1085 6037c-173-80-182-311-16-398 35-18 62-22 154-25 129-3 317-13 362-19 16-2 57-7 90-10 33-3 72-8 86-10 14-3 42-7 62-10 20-3 54-7 74-10 77-11 244-47 391-85 520-135 1053-385 1477-693 78-57 246-189 285-223 14-12 52-46 85-75 253-225 546-563 731-844 349-533 571-1083 677-1685 28-155 35-206 43-285 2-27 6-64 9-80 6-41 15-203 20-358 4-135 14-166 69-219 84-81 237-74 312 15 54 64 57 83 50 307-4 113-8 224-10 247-8 94-17 179-21 193-2 8-6 38-10 65-7 58-43 273-50 295-2 8-6 26-9 40-34 187-151 587-221 755-84 203-119 282-180 405-163 328-342 611-569 894-245 306-566 618-871 846-33 25-62 47-65 50-3 3-12 10-22 15-9 6-74 49-145 96-176 118-328 207-525 305-92 46-169 84-172 84-2 0-37 15-78 34-219 1e2-573 214-911 290-75 17-82 19-217 41-52 8-104 17-115 19-11 2-67 9-125 15-58 6-125 13-150 16-25 3-139 8-255 10-166 4-216 3-240-8z"/><path d="M1092 3997c-149-57-189-242-78-362 39-42 108-62 216-64 94-2 125-4 228-16 410-47 818-212 1167-474 129-97 361-329 454-453 156-210 283-446 357-659 58-171 106-376 119-514 4-38 9-83 11-1e2 2-16 4-72 5-124 2-116 19-168 69-219 115-114 317-62 360 94 11 40 9 286-4 349-2 11-7 52-12 90-4 39-8 72-9 75-1 3-5 25-9 50-42 241-142 544-255 768-71 142-205 356-275 443-12 14-32 40-46 59-1e2 133-335 364-489 480-18 14-45 34-59 45-193 147-496 305-747 390-215 72-355 104-620 140-98 13-351 15-383 2z"/><path d="M1343 1955c-176-41-324-184-376-360-24-84-22-199 6-286 99-314 450-452 736-292 271 152 341 506 148 758-112 148-328 224-514 180zm164-447c29-27 30-71 3-98-21-21-31-24-65-20-55 5-76 79-35 120 26 26 68 25 97-2z"/></g></svg>